G04 #@! TF.GenerationSoftware,KiCad,Pcbnew,5.1.4*
G04 #@! TF.CreationDate,2019-09-02T18:10:03+03:00*
G04 #@! TF.ProjectId,bluepill_stlink,626c7565-7069-46c6-9c5f-73746c696e6b,rev?*
G04 #@! TF.SameCoordinates,Original*
G04 #@! TF.FileFunction,Copper,L1,Top*
G04 #@! TF.FilePolarity,Positive*
%FSLAX46Y46*%
G04 Gerber Fmt 4.6, Leading zero omitted, Abs format (unit mm)*
G04 Created by KiCad (PCBNEW 5.1.4) date 2019-09-02 18:10:03*
%MOMM*%
%LPD*%
G04 APERTURE LIST*
%ADD10C,0.250000*%
%ADD11O,1.700000X1.700000*%
%ADD12R,0.900000X1.200000*%
%ADD13C,1.700000*%
%ADD14R,1.700000X1.700000*%
%ADD15C,1.524000*%
%ADD16R,1.524000X1.524000*%
%ADD17C,0.100000*%
%ADD18C,1.250000*%
%ADD19C,0.900000*%
%ADD20C,0.400000*%
G04 APERTURE END LIST*
D10*
X31472476Y-43632380D02*
X31472476Y-42632380D01*
X31853428Y-42632380D01*
X31948666Y-42680000D01*
X31996285Y-42727619D01*
X32043904Y-42822857D01*
X32043904Y-42965714D01*
X31996285Y-43060952D01*
X31948666Y-43108571D01*
X31853428Y-43156190D01*
X31472476Y-43156190D01*
X32662952Y-42632380D02*
X32853428Y-42632380D01*
X32948666Y-42680000D01*
X33043904Y-42775238D01*
X33091523Y-42965714D01*
X33091523Y-43299047D01*
X33043904Y-43489523D01*
X32948666Y-43584761D01*
X32853428Y-43632380D01*
X32662952Y-43632380D01*
X32567714Y-43584761D01*
X32472476Y-43489523D01*
X32424857Y-43299047D01*
X32424857Y-42965714D01*
X32472476Y-42775238D01*
X32567714Y-42680000D01*
X32662952Y-42632380D01*
X33424857Y-42632380D02*
X33662952Y-43632380D01*
X33853428Y-42918095D01*
X34043904Y-43632380D01*
X34282000Y-42632380D01*
X34662952Y-43108571D02*
X34996285Y-43108571D01*
X35139142Y-43632380D02*
X34662952Y-43632380D01*
X34662952Y-42632380D01*
X35139142Y-42632380D01*
X36139142Y-43632380D02*
X35805809Y-43156190D01*
X35567714Y-43632380D02*
X35567714Y-42632380D01*
X35948666Y-42632380D01*
X36043904Y-42680000D01*
X36091523Y-42727619D01*
X36139142Y-42822857D01*
X36139142Y-42965714D01*
X36091523Y-43060952D01*
X36043904Y-43108571D01*
X35948666Y-43156190D01*
X35567714Y-43156190D01*
X34210714Y-41092380D02*
X33734523Y-41092380D01*
X33734523Y-40092380D01*
X34544047Y-41092380D02*
X34544047Y-40092380D01*
X34782142Y-40092380D01*
X34925000Y-40140000D01*
X35020238Y-40235238D01*
X35067857Y-40330476D01*
X35115476Y-40520952D01*
X35115476Y-40663809D01*
X35067857Y-40854285D01*
X35020238Y-40949523D01*
X34925000Y-41044761D01*
X34782142Y-41092380D01*
X34544047Y-41092380D01*
X35734523Y-40092380D02*
X35925000Y-40092380D01*
X36020238Y-40140000D01*
X36115476Y-40235238D01*
X36163095Y-40425714D01*
X36163095Y-40759047D01*
X36115476Y-40949523D01*
X36020238Y-41044761D01*
X35925000Y-41092380D01*
X35734523Y-41092380D01*
X35639285Y-41044761D01*
X35544047Y-40949523D01*
X35496428Y-40759047D01*
X35496428Y-40425714D01*
X35544047Y-40235238D01*
X35639285Y-40140000D01*
X35734523Y-40092380D01*
X34147238Y-46172380D02*
X34147238Y-45172380D01*
X34623428Y-46172380D02*
X34623428Y-45172380D01*
X35194857Y-46172380D01*
X35194857Y-45172380D01*
X35528190Y-45172380D02*
X36099619Y-45172380D01*
X35813904Y-46172380D02*
X35813904Y-45172380D01*
X32154761Y-67031904D02*
X32202380Y-66889047D01*
X32202380Y-66650952D01*
X32154761Y-66555714D01*
X32107142Y-66508095D01*
X32011904Y-66460476D01*
X31916666Y-66460476D01*
X31821428Y-66508095D01*
X31773809Y-66555714D01*
X31726190Y-66650952D01*
X31678571Y-66841428D01*
X31630952Y-66936666D01*
X31583333Y-66984285D01*
X31488095Y-67031904D01*
X31392857Y-67031904D01*
X31297619Y-66984285D01*
X31250000Y-66936666D01*
X31202380Y-66841428D01*
X31202380Y-66603333D01*
X31250000Y-66460476D01*
X31202380Y-66127142D02*
X32202380Y-65889047D01*
X31488095Y-65698571D01*
X32202380Y-65508095D01*
X31202380Y-65270000D01*
X32107142Y-64317619D02*
X32154761Y-64365238D01*
X32202380Y-64508095D01*
X32202380Y-64603333D01*
X32154761Y-64746190D01*
X32059523Y-64841428D01*
X31964285Y-64889047D01*
X31773809Y-64936666D01*
X31630952Y-64936666D01*
X31440476Y-64889047D01*
X31345238Y-64841428D01*
X31250000Y-64746190D01*
X31202380Y-64603333D01*
X31202380Y-64508095D01*
X31250000Y-64365238D01*
X31297619Y-64317619D01*
X32202380Y-63412857D02*
X32202380Y-63889047D01*
X31202380Y-63889047D01*
X32202380Y-63079523D02*
X31202380Y-63079523D01*
X32202380Y-62508095D02*
X31630952Y-62936666D01*
X31202380Y-62508095D02*
X31773809Y-63079523D01*
X34694761Y-67016047D02*
X34742380Y-66873190D01*
X34742380Y-66635095D01*
X34694761Y-66539857D01*
X34647142Y-66492238D01*
X34551904Y-66444619D01*
X34456666Y-66444619D01*
X34361428Y-66492238D01*
X34313809Y-66539857D01*
X34266190Y-66635095D01*
X34218571Y-66825571D01*
X34170952Y-66920809D01*
X34123333Y-66968428D01*
X34028095Y-67016047D01*
X33932857Y-67016047D01*
X33837619Y-66968428D01*
X33790000Y-66920809D01*
X33742380Y-66825571D01*
X33742380Y-66587476D01*
X33790000Y-66444619D01*
X33742380Y-66111285D02*
X34742380Y-65873190D01*
X34028095Y-65682714D01*
X34742380Y-65492238D01*
X33742380Y-65254142D01*
X34742380Y-64873190D02*
X33742380Y-64873190D01*
X33742380Y-64635095D01*
X33790000Y-64492238D01*
X33885238Y-64397000D01*
X33980476Y-64349380D01*
X34170952Y-64301761D01*
X34313809Y-64301761D01*
X34504285Y-64349380D01*
X34599523Y-64397000D01*
X34694761Y-64492238D01*
X34742380Y-64635095D01*
X34742380Y-64873190D01*
X34742380Y-63873190D02*
X33742380Y-63873190D01*
X33742380Y-63206523D02*
X33742380Y-63016047D01*
X33790000Y-62920809D01*
X33885238Y-62825571D01*
X34075714Y-62777952D01*
X34409047Y-62777952D01*
X34599523Y-62825571D01*
X34694761Y-62920809D01*
X34742380Y-63016047D01*
X34742380Y-63206523D01*
X34694761Y-63301761D01*
X34599523Y-63397000D01*
X34409047Y-63444619D01*
X34075714Y-63444619D01*
X33885238Y-63397000D01*
X33790000Y-63301761D01*
X33742380Y-63206523D01*
X28710000Y-66293904D02*
X28662380Y-66389142D01*
X28662380Y-66532000D01*
X28710000Y-66674857D01*
X28805238Y-66770095D01*
X28900476Y-66817714D01*
X29090952Y-66865333D01*
X29233809Y-66865333D01*
X29424285Y-66817714D01*
X29519523Y-66770095D01*
X29614761Y-66674857D01*
X29662380Y-66532000D01*
X29662380Y-66436761D01*
X29614761Y-66293904D01*
X29567142Y-66246285D01*
X29233809Y-66246285D01*
X29233809Y-66436761D01*
X29662380Y-65817714D02*
X28662380Y-65817714D01*
X29662380Y-65246285D01*
X28662380Y-65246285D01*
X29662380Y-64770095D02*
X28662380Y-64770095D01*
X28662380Y-64532000D01*
X28710000Y-64389142D01*
X28805238Y-64293904D01*
X28900476Y-64246285D01*
X29090952Y-64198666D01*
X29233809Y-64198666D01*
X29424285Y-64246285D01*
X29519523Y-64293904D01*
X29614761Y-64389142D01*
X29662380Y-64532000D01*
X29662380Y-64770095D01*
X36282380Y-67008190D02*
X36282380Y-66389142D01*
X36663333Y-66722476D01*
X36663333Y-66579619D01*
X36710952Y-66484380D01*
X36758571Y-66436761D01*
X36853809Y-66389142D01*
X37091904Y-66389142D01*
X37187142Y-66436761D01*
X37234761Y-66484380D01*
X37282380Y-66579619D01*
X37282380Y-66865333D01*
X37234761Y-66960571D01*
X37187142Y-67008190D01*
X37187142Y-65960571D02*
X37234761Y-65912952D01*
X37282380Y-65960571D01*
X37234761Y-66008190D01*
X37187142Y-65960571D01*
X37282380Y-65960571D01*
X36282380Y-65579619D02*
X36282380Y-64960571D01*
X36663333Y-65293904D01*
X36663333Y-65151047D01*
X36710952Y-65055809D01*
X36758571Y-65008190D01*
X36853809Y-64960571D01*
X37091904Y-64960571D01*
X37187142Y-65008190D01*
X37234761Y-65055809D01*
X37282380Y-65151047D01*
X37282380Y-65436761D01*
X37234761Y-65532000D01*
X37187142Y-65579619D01*
X36282380Y-64674857D02*
X37282380Y-64341523D01*
X36282380Y-64008190D01*
X37933333Y-54300380D02*
X37600000Y-53824190D01*
X37361904Y-54300380D02*
X37361904Y-53300380D01*
X37742857Y-53300380D01*
X37838095Y-53348000D01*
X37885714Y-53395619D01*
X37933333Y-53490857D01*
X37933333Y-53633714D01*
X37885714Y-53728952D01*
X37838095Y-53776571D01*
X37742857Y-53824190D01*
X37361904Y-53824190D01*
X38266666Y-53300380D02*
X38933333Y-54300380D01*
X38933333Y-53300380D02*
X38266666Y-54300380D01*
X37338095Y-60158380D02*
X37909523Y-60158380D01*
X37623809Y-61158380D02*
X37623809Y-60158380D01*
X38147619Y-60158380D02*
X38814285Y-61158380D01*
X38814285Y-60158380D02*
X38147619Y-61158380D01*
X29607047Y-48664761D02*
X29749904Y-48712380D01*
X29988000Y-48712380D01*
X30083238Y-48664761D01*
X30130857Y-48617142D01*
X30178476Y-48521904D01*
X30178476Y-48426666D01*
X30130857Y-48331428D01*
X30083238Y-48283809D01*
X29988000Y-48236190D01*
X29797523Y-48188571D01*
X29702285Y-48140952D01*
X29654666Y-48093333D01*
X29607047Y-47998095D01*
X29607047Y-47902857D01*
X29654666Y-47807619D01*
X29702285Y-47760000D01*
X29797523Y-47712380D01*
X30035619Y-47712380D01*
X30178476Y-47760000D01*
X30511809Y-47712380D02*
X30749904Y-48712380D01*
X30940380Y-47998095D01*
X31130857Y-48712380D01*
X31368952Y-47712380D01*
X31940380Y-47712380D02*
X32130857Y-47712380D01*
X32226095Y-47760000D01*
X32321333Y-47855238D01*
X32368952Y-48045714D01*
X32368952Y-48379047D01*
X32321333Y-48569523D01*
X32226095Y-48664761D01*
X32130857Y-48712380D01*
X31940380Y-48712380D01*
X31845142Y-48664761D01*
X31749904Y-48569523D01*
X31702285Y-48379047D01*
X31702285Y-48045714D01*
X31749904Y-47855238D01*
X31845142Y-47760000D01*
X31940380Y-47712380D01*
X29599142Y-51252380D02*
X29599142Y-50252380D01*
X30170571Y-51252380D01*
X30170571Y-50252380D01*
X31218190Y-51252380D02*
X30884857Y-50776190D01*
X30646761Y-51252380D02*
X30646761Y-50252380D01*
X31027714Y-50252380D01*
X31122952Y-50300000D01*
X31170571Y-50347619D01*
X31218190Y-50442857D01*
X31218190Y-50585714D01*
X31170571Y-50680952D01*
X31122952Y-50728571D01*
X31027714Y-50776190D01*
X30646761Y-50776190D01*
X31599142Y-51204761D02*
X31742000Y-51252380D01*
X31980095Y-51252380D01*
X32075333Y-51204761D01*
X32122952Y-51157142D01*
X32170571Y-51061904D01*
X32170571Y-50966666D01*
X32122952Y-50871428D01*
X32075333Y-50823809D01*
X31980095Y-50776190D01*
X31789619Y-50728571D01*
X31694380Y-50680952D01*
X31646761Y-50633333D01*
X31599142Y-50538095D01*
X31599142Y-50442857D01*
X31646761Y-50347619D01*
X31694380Y-50300000D01*
X31789619Y-50252380D01*
X32027714Y-50252380D01*
X32170571Y-50300000D01*
X32456285Y-50252380D02*
X33027714Y-50252380D01*
X32742000Y-51252380D02*
X32742000Y-50252380D01*
X29630952Y-53744761D02*
X29773809Y-53792380D01*
X30011904Y-53792380D01*
X30107142Y-53744761D01*
X30154761Y-53697142D01*
X30202380Y-53601904D01*
X30202380Y-53506666D01*
X30154761Y-53411428D01*
X30107142Y-53363809D01*
X30011904Y-53316190D01*
X29821428Y-53268571D01*
X29726190Y-53220952D01*
X29678571Y-53173333D01*
X29630952Y-53078095D01*
X29630952Y-52982857D01*
X29678571Y-52887619D01*
X29726190Y-52840000D01*
X29821428Y-52792380D01*
X30059523Y-52792380D01*
X30202380Y-52840000D01*
X30535714Y-52792380D02*
X30773809Y-53792380D01*
X30964285Y-53078095D01*
X31154761Y-53792380D01*
X31392857Y-52792380D01*
X31773809Y-53792380D02*
X31773809Y-52792380D01*
X32011904Y-52792380D01*
X32154761Y-52840000D01*
X32250000Y-52935238D01*
X32297619Y-53030476D01*
X32345238Y-53220952D01*
X32345238Y-53363809D01*
X32297619Y-53554285D01*
X32250000Y-53649523D01*
X32154761Y-53744761D01*
X32011904Y-53792380D01*
X31773809Y-53792380D01*
X32773809Y-53792380D02*
X32773809Y-52792380D01*
X33440476Y-52792380D02*
X33630952Y-52792380D01*
X33726190Y-52840000D01*
X33821428Y-52935238D01*
X33869047Y-53125714D01*
X33869047Y-53459047D01*
X33821428Y-53649523D01*
X33726190Y-53744761D01*
X33630952Y-53792380D01*
X33440476Y-53792380D01*
X33345238Y-53744761D01*
X33250000Y-53649523D01*
X33202380Y-53459047D01*
X33202380Y-53125714D01*
X33250000Y-52935238D01*
X33345238Y-52840000D01*
X33440476Y-52792380D01*
X29654761Y-60412380D02*
X30226190Y-60412380D01*
X29940476Y-61412380D02*
X29940476Y-60412380D01*
X30321428Y-61507619D02*
X31083333Y-61507619D01*
X31178571Y-60412380D02*
X31511904Y-61412380D01*
X31845238Y-60412380D01*
X32750000Y-61317142D02*
X32702380Y-61364761D01*
X32559523Y-61412380D01*
X32464285Y-61412380D01*
X32321428Y-61364761D01*
X32226190Y-61269523D01*
X32178571Y-61174285D01*
X32130952Y-60983809D01*
X32130952Y-60840952D01*
X32178571Y-60650476D01*
X32226190Y-60555238D01*
X32321428Y-60460000D01*
X32464285Y-60412380D01*
X32559523Y-60412380D01*
X32702380Y-60460000D01*
X32750000Y-60507619D01*
X33750000Y-61317142D02*
X33702380Y-61364761D01*
X33559523Y-61412380D01*
X33464285Y-61412380D01*
X33321428Y-61364761D01*
X33226190Y-61269523D01*
X33178571Y-61174285D01*
X33130952Y-60983809D01*
X33130952Y-60840952D01*
X33178571Y-60650476D01*
X33226190Y-60555238D01*
X33321428Y-60460000D01*
X33464285Y-60412380D01*
X33559523Y-60412380D01*
X33702380Y-60460000D01*
X33750000Y-60507619D01*
X29742095Y-58824761D02*
X29884952Y-58872380D01*
X30123047Y-58872380D01*
X30218285Y-58824761D01*
X30265904Y-58777142D01*
X30313523Y-58681904D01*
X30313523Y-58586666D01*
X30265904Y-58491428D01*
X30218285Y-58443809D01*
X30123047Y-58396190D01*
X29932571Y-58348571D01*
X29837333Y-58300952D01*
X29789714Y-58253333D01*
X29742095Y-58158095D01*
X29742095Y-58062857D01*
X29789714Y-57967619D01*
X29837333Y-57920000D01*
X29932571Y-57872380D01*
X30170666Y-57872380D01*
X30313523Y-57920000D01*
X30646857Y-57872380D02*
X30884952Y-58872380D01*
X31075428Y-58158095D01*
X31265904Y-58872380D01*
X31504000Y-57872380D01*
X32456380Y-58777142D02*
X32408761Y-58824761D01*
X32265904Y-58872380D01*
X32170666Y-58872380D01*
X32027809Y-58824761D01*
X31932571Y-58729523D01*
X31884952Y-58634285D01*
X31837333Y-58443809D01*
X31837333Y-58300952D01*
X31884952Y-58110476D01*
X31932571Y-58015238D01*
X32027809Y-57920000D01*
X32170666Y-57872380D01*
X32265904Y-57872380D01*
X32408761Y-57920000D01*
X32456380Y-57967619D01*
X33361142Y-58872380D02*
X32884952Y-58872380D01*
X32884952Y-57872380D01*
X33694476Y-58872380D02*
X33694476Y-57872380D01*
X34265904Y-58872380D02*
X33837333Y-58300952D01*
X34265904Y-57872380D02*
X33694476Y-58443809D01*
X30353095Y-55380000D02*
X30257857Y-55332380D01*
X30115000Y-55332380D01*
X29972142Y-55380000D01*
X29876904Y-55475238D01*
X29829285Y-55570476D01*
X29781666Y-55760952D01*
X29781666Y-55903809D01*
X29829285Y-56094285D01*
X29876904Y-56189523D01*
X29972142Y-56284761D01*
X30115000Y-56332380D01*
X30210238Y-56332380D01*
X30353095Y-56284761D01*
X30400714Y-56237142D01*
X30400714Y-55903809D01*
X30210238Y-55903809D01*
X30829285Y-56332380D02*
X30829285Y-55332380D01*
X31400714Y-56332380D01*
X31400714Y-55332380D01*
X31876904Y-56332380D02*
X31876904Y-55332380D01*
X32115000Y-55332380D01*
X32257857Y-55380000D01*
X32353095Y-55475238D01*
X32400714Y-55570476D01*
X32448333Y-55760952D01*
X32448333Y-55903809D01*
X32400714Y-56094285D01*
X32353095Y-56189523D01*
X32257857Y-56284761D01*
X32115000Y-56332380D01*
X31876904Y-56332380D01*
D11*
X38100000Y-45720000D03*
X38100000Y-43180000D03*
X38100000Y-40640000D03*
D12*
X32295000Y-35944000D03*
X33745000Y-33144000D03*
X33745000Y-35944000D03*
X32295000Y-33144000D03*
D13*
X38100000Y-63500000D03*
D11*
X29210000Y-68580000D03*
X31750000Y-68580000D03*
X34290000Y-68580000D03*
D14*
X36830000Y-68580000D03*
D11*
X27940000Y-48260000D03*
X27940000Y-50800000D03*
X27940000Y-53340000D03*
X27940000Y-55880000D03*
X27940000Y-58420000D03*
D14*
X27940000Y-60960000D03*
D11*
X38100000Y-55880000D03*
X38100000Y-58420000D03*
D15*
X40640000Y-25400000D03*
X40640000Y-27940000D03*
X40640000Y-30480000D03*
X40640000Y-33020000D03*
X40640000Y-35560000D03*
X40640000Y-38100000D03*
X40640000Y-40640000D03*
X40640000Y-43180000D03*
X40640000Y-45720000D03*
X40640000Y-48260000D03*
X40640000Y-50800000D03*
X40640000Y-53340000D03*
X40640000Y-55880000D03*
X40640000Y-58420000D03*
X40640000Y-60960000D03*
X40640000Y-63500000D03*
X40640000Y-66040000D03*
X40640000Y-68580000D03*
X40640000Y-71120000D03*
X40640000Y-73660000D03*
X25400000Y-73660000D03*
X25400000Y-71120000D03*
X25400000Y-68580000D03*
X25400000Y-66040000D03*
X25400000Y-63500000D03*
X25400000Y-60960000D03*
X25400000Y-58420000D03*
X25400000Y-55880000D03*
X25400000Y-53340000D03*
X25400000Y-50800000D03*
X25400000Y-48260000D03*
X25400000Y-45720000D03*
X25400000Y-43180000D03*
X25400000Y-40640000D03*
X25400000Y-38100000D03*
X25400000Y-35560000D03*
X25400000Y-33020000D03*
X25400000Y-30480000D03*
X25400000Y-27940000D03*
D16*
X25400000Y-25400000D03*
D17*
G36*
X32019504Y-24780204D02*
G01*
X32043773Y-24783804D01*
X32067571Y-24789765D01*
X32090671Y-24798030D01*
X32112849Y-24808520D01*
X32133893Y-24821133D01*
X32153598Y-24835747D01*
X32171777Y-24852223D01*
X32188253Y-24870402D01*
X32202867Y-24890107D01*
X32215480Y-24911151D01*
X32225970Y-24933329D01*
X32234235Y-24956429D01*
X32240196Y-24980227D01*
X32243796Y-25004496D01*
X32245000Y-25029000D01*
X32245000Y-26279000D01*
X32243796Y-26303504D01*
X32240196Y-26327773D01*
X32234235Y-26351571D01*
X32225970Y-26374671D01*
X32215480Y-26396849D01*
X32202867Y-26417893D01*
X32188253Y-26437598D01*
X32171777Y-26455777D01*
X32153598Y-26472253D01*
X32133893Y-26486867D01*
X32112849Y-26499480D01*
X32090671Y-26509970D01*
X32067571Y-26518235D01*
X32043773Y-26524196D01*
X32019504Y-26527796D01*
X31995000Y-26529000D01*
X31245000Y-26529000D01*
X31220496Y-26527796D01*
X31196227Y-26524196D01*
X31172429Y-26518235D01*
X31149329Y-26509970D01*
X31127151Y-26499480D01*
X31106107Y-26486867D01*
X31086402Y-26472253D01*
X31068223Y-26455777D01*
X31051747Y-26437598D01*
X31037133Y-26417893D01*
X31024520Y-26396849D01*
X31014030Y-26374671D01*
X31005765Y-26351571D01*
X30999804Y-26327773D01*
X30996204Y-26303504D01*
X30995000Y-26279000D01*
X30995000Y-25029000D01*
X30996204Y-25004496D01*
X30999804Y-24980227D01*
X31005765Y-24956429D01*
X31014030Y-24933329D01*
X31024520Y-24911151D01*
X31037133Y-24890107D01*
X31051747Y-24870402D01*
X31068223Y-24852223D01*
X31086402Y-24835747D01*
X31106107Y-24821133D01*
X31127151Y-24808520D01*
X31149329Y-24798030D01*
X31172429Y-24789765D01*
X31196227Y-24783804D01*
X31220496Y-24780204D01*
X31245000Y-24779000D01*
X31995000Y-24779000D01*
X32019504Y-24780204D01*
X32019504Y-24780204D01*
G37*
D18*
X31620000Y-25654000D03*
D17*
G36*
X34819504Y-24780204D02*
G01*
X34843773Y-24783804D01*
X34867571Y-24789765D01*
X34890671Y-24798030D01*
X34912849Y-24808520D01*
X34933893Y-24821133D01*
X34953598Y-24835747D01*
X34971777Y-24852223D01*
X34988253Y-24870402D01*
X35002867Y-24890107D01*
X35015480Y-24911151D01*
X35025970Y-24933329D01*
X35034235Y-24956429D01*
X35040196Y-24980227D01*
X35043796Y-25004496D01*
X35045000Y-25029000D01*
X35045000Y-26279000D01*
X35043796Y-26303504D01*
X35040196Y-26327773D01*
X35034235Y-26351571D01*
X35025970Y-26374671D01*
X35015480Y-26396849D01*
X35002867Y-26417893D01*
X34988253Y-26437598D01*
X34971777Y-26455777D01*
X34953598Y-26472253D01*
X34933893Y-26486867D01*
X34912849Y-26499480D01*
X34890671Y-26509970D01*
X34867571Y-26518235D01*
X34843773Y-26524196D01*
X34819504Y-26527796D01*
X34795000Y-26529000D01*
X34045000Y-26529000D01*
X34020496Y-26527796D01*
X33996227Y-26524196D01*
X33972429Y-26518235D01*
X33949329Y-26509970D01*
X33927151Y-26499480D01*
X33906107Y-26486867D01*
X33886402Y-26472253D01*
X33868223Y-26455777D01*
X33851747Y-26437598D01*
X33837133Y-26417893D01*
X33824520Y-26396849D01*
X33814030Y-26374671D01*
X33805765Y-26351571D01*
X33799804Y-26327773D01*
X33796204Y-26303504D01*
X33795000Y-26279000D01*
X33795000Y-25029000D01*
X33796204Y-25004496D01*
X33799804Y-24980227D01*
X33805765Y-24956429D01*
X33814030Y-24933329D01*
X33824520Y-24911151D01*
X33837133Y-24890107D01*
X33851747Y-24870402D01*
X33868223Y-24852223D01*
X33886402Y-24835747D01*
X33906107Y-24821133D01*
X33927151Y-24808520D01*
X33949329Y-24798030D01*
X33972429Y-24789765D01*
X33996227Y-24783804D01*
X34020496Y-24780204D01*
X34045000Y-24779000D01*
X34795000Y-24779000D01*
X34819504Y-24780204D01*
X34819504Y-24780204D01*
G37*
D18*
X34420000Y-25654000D03*
D17*
G36*
X36273004Y-32456704D02*
G01*
X36297273Y-32460304D01*
X36321071Y-32466265D01*
X36344171Y-32474530D01*
X36366349Y-32485020D01*
X36387393Y-32497633D01*
X36407098Y-32512247D01*
X36425277Y-32528723D01*
X36441753Y-32546902D01*
X36456367Y-32566607D01*
X36468980Y-32587651D01*
X36479470Y-32609829D01*
X36487735Y-32632929D01*
X36493696Y-32656727D01*
X36497296Y-32680996D01*
X36498500Y-32705500D01*
X36498500Y-33455500D01*
X36497296Y-33480004D01*
X36493696Y-33504273D01*
X36487735Y-33528071D01*
X36479470Y-33551171D01*
X36468980Y-33573349D01*
X36456367Y-33594393D01*
X36441753Y-33614098D01*
X36425277Y-33632277D01*
X36407098Y-33648753D01*
X36387393Y-33663367D01*
X36366349Y-33675980D01*
X36344171Y-33686470D01*
X36321071Y-33694735D01*
X36297273Y-33700696D01*
X36273004Y-33704296D01*
X36248500Y-33705500D01*
X34998500Y-33705500D01*
X34973996Y-33704296D01*
X34949727Y-33700696D01*
X34925929Y-33694735D01*
X34902829Y-33686470D01*
X34880651Y-33675980D01*
X34859607Y-33663367D01*
X34839902Y-33648753D01*
X34821723Y-33632277D01*
X34805247Y-33614098D01*
X34790633Y-33594393D01*
X34778020Y-33573349D01*
X34767530Y-33551171D01*
X34759265Y-33528071D01*
X34753304Y-33504273D01*
X34749704Y-33480004D01*
X34748500Y-33455500D01*
X34748500Y-32705500D01*
X34749704Y-32680996D01*
X34753304Y-32656727D01*
X34759265Y-32632929D01*
X34767530Y-32609829D01*
X34778020Y-32587651D01*
X34790633Y-32566607D01*
X34805247Y-32546902D01*
X34821723Y-32528723D01*
X34839902Y-32512247D01*
X34859607Y-32497633D01*
X34880651Y-32485020D01*
X34902829Y-32474530D01*
X34925929Y-32466265D01*
X34949727Y-32460304D01*
X34973996Y-32456704D01*
X34998500Y-32455500D01*
X36248500Y-32455500D01*
X36273004Y-32456704D01*
X36273004Y-32456704D01*
G37*
D18*
X35623500Y-33080500D03*
D17*
G36*
X36273004Y-35256704D02*
G01*
X36297273Y-35260304D01*
X36321071Y-35266265D01*
X36344171Y-35274530D01*
X36366349Y-35285020D01*
X36387393Y-35297633D01*
X36407098Y-35312247D01*
X36425277Y-35328723D01*
X36441753Y-35346902D01*
X36456367Y-35366607D01*
X36468980Y-35387651D01*
X36479470Y-35409829D01*
X36487735Y-35432929D01*
X36493696Y-35456727D01*
X36497296Y-35480996D01*
X36498500Y-35505500D01*
X36498500Y-36255500D01*
X36497296Y-36280004D01*
X36493696Y-36304273D01*
X36487735Y-36328071D01*
X36479470Y-36351171D01*
X36468980Y-36373349D01*
X36456367Y-36394393D01*
X36441753Y-36414098D01*
X36425277Y-36432277D01*
X36407098Y-36448753D01*
X36387393Y-36463367D01*
X36366349Y-36475980D01*
X36344171Y-36486470D01*
X36321071Y-36494735D01*
X36297273Y-36500696D01*
X36273004Y-36504296D01*
X36248500Y-36505500D01*
X34998500Y-36505500D01*
X34973996Y-36504296D01*
X34949727Y-36500696D01*
X34925929Y-36494735D01*
X34902829Y-36486470D01*
X34880651Y-36475980D01*
X34859607Y-36463367D01*
X34839902Y-36448753D01*
X34821723Y-36432277D01*
X34805247Y-36414098D01*
X34790633Y-36394393D01*
X34778020Y-36373349D01*
X34767530Y-36351171D01*
X34759265Y-36328071D01*
X34753304Y-36304273D01*
X34749704Y-36280004D01*
X34748500Y-36255500D01*
X34748500Y-35505500D01*
X34749704Y-35480996D01*
X34753304Y-35456727D01*
X34759265Y-35432929D01*
X34767530Y-35409829D01*
X34778020Y-35387651D01*
X34790633Y-35366607D01*
X34805247Y-35346902D01*
X34821723Y-35328723D01*
X34839902Y-35312247D01*
X34859607Y-35297633D01*
X34880651Y-35285020D01*
X34902829Y-35274530D01*
X34925929Y-35266265D01*
X34949727Y-35260304D01*
X34973996Y-35256704D01*
X34998500Y-35255500D01*
X36248500Y-35255500D01*
X36273004Y-35256704D01*
X36273004Y-35256704D01*
G37*
D18*
X35623500Y-35880500D03*
D17*
G36*
X31066004Y-32456704D02*
G01*
X31090273Y-32460304D01*
X31114071Y-32466265D01*
X31137171Y-32474530D01*
X31159349Y-32485020D01*
X31180393Y-32497633D01*
X31200098Y-32512247D01*
X31218277Y-32528723D01*
X31234753Y-32546902D01*
X31249367Y-32566607D01*
X31261980Y-32587651D01*
X31272470Y-32609829D01*
X31280735Y-32632929D01*
X31286696Y-32656727D01*
X31290296Y-32680996D01*
X31291500Y-32705500D01*
X31291500Y-33455500D01*
X31290296Y-33480004D01*
X31286696Y-33504273D01*
X31280735Y-33528071D01*
X31272470Y-33551171D01*
X31261980Y-33573349D01*
X31249367Y-33594393D01*
X31234753Y-33614098D01*
X31218277Y-33632277D01*
X31200098Y-33648753D01*
X31180393Y-33663367D01*
X31159349Y-33675980D01*
X31137171Y-33686470D01*
X31114071Y-33694735D01*
X31090273Y-33700696D01*
X31066004Y-33704296D01*
X31041500Y-33705500D01*
X29791500Y-33705500D01*
X29766996Y-33704296D01*
X29742727Y-33700696D01*
X29718929Y-33694735D01*
X29695829Y-33686470D01*
X29673651Y-33675980D01*
X29652607Y-33663367D01*
X29632902Y-33648753D01*
X29614723Y-33632277D01*
X29598247Y-33614098D01*
X29583633Y-33594393D01*
X29571020Y-33573349D01*
X29560530Y-33551171D01*
X29552265Y-33528071D01*
X29546304Y-33504273D01*
X29542704Y-33480004D01*
X29541500Y-33455500D01*
X29541500Y-32705500D01*
X29542704Y-32680996D01*
X29546304Y-32656727D01*
X29552265Y-32632929D01*
X29560530Y-32609829D01*
X29571020Y-32587651D01*
X29583633Y-32566607D01*
X29598247Y-32546902D01*
X29614723Y-32528723D01*
X29632902Y-32512247D01*
X29652607Y-32497633D01*
X29673651Y-32485020D01*
X29695829Y-32474530D01*
X29718929Y-32466265D01*
X29742727Y-32460304D01*
X29766996Y-32456704D01*
X29791500Y-32455500D01*
X31041500Y-32455500D01*
X31066004Y-32456704D01*
X31066004Y-32456704D01*
G37*
D18*
X30416500Y-33080500D03*
D17*
G36*
X31066004Y-35256704D02*
G01*
X31090273Y-35260304D01*
X31114071Y-35266265D01*
X31137171Y-35274530D01*
X31159349Y-35285020D01*
X31180393Y-35297633D01*
X31200098Y-35312247D01*
X31218277Y-35328723D01*
X31234753Y-35346902D01*
X31249367Y-35366607D01*
X31261980Y-35387651D01*
X31272470Y-35409829D01*
X31280735Y-35432929D01*
X31286696Y-35456727D01*
X31290296Y-35480996D01*
X31291500Y-35505500D01*
X31291500Y-36255500D01*
X31290296Y-36280004D01*
X31286696Y-36304273D01*
X31280735Y-36328071D01*
X31272470Y-36351171D01*
X31261980Y-36373349D01*
X31249367Y-36394393D01*
X31234753Y-36414098D01*
X31218277Y-36432277D01*
X31200098Y-36448753D01*
X31180393Y-36463367D01*
X31159349Y-36475980D01*
X31137171Y-36486470D01*
X31114071Y-36494735D01*
X31090273Y-36500696D01*
X31066004Y-36504296D01*
X31041500Y-36505500D01*
X29791500Y-36505500D01*
X29766996Y-36504296D01*
X29742727Y-36500696D01*
X29718929Y-36494735D01*
X29695829Y-36486470D01*
X29673651Y-36475980D01*
X29652607Y-36463367D01*
X29632902Y-36448753D01*
X29614723Y-36432277D01*
X29598247Y-36414098D01*
X29583633Y-36394393D01*
X29571020Y-36373349D01*
X29560530Y-36351171D01*
X29552265Y-36328071D01*
X29546304Y-36304273D01*
X29542704Y-36280004D01*
X29541500Y-36255500D01*
X29541500Y-35505500D01*
X29542704Y-35480996D01*
X29546304Y-35456727D01*
X29552265Y-35432929D01*
X29560530Y-35409829D01*
X29571020Y-35387651D01*
X29583633Y-35366607D01*
X29598247Y-35346902D01*
X29614723Y-35328723D01*
X29632902Y-35312247D01*
X29652607Y-35297633D01*
X29673651Y-35285020D01*
X29695829Y-35274530D01*
X29718929Y-35266265D01*
X29742727Y-35260304D01*
X29766996Y-35256704D01*
X29791500Y-35255500D01*
X31041500Y-35255500D01*
X31066004Y-35256704D01*
X31066004Y-35256704D01*
G37*
D18*
X30416500Y-35880500D03*
D17*
G36*
X32019504Y-27061124D02*
G01*
X32043773Y-27064724D01*
X32067571Y-27070685D01*
X32090671Y-27078950D01*
X32112849Y-27089440D01*
X32133893Y-27102053D01*
X32153598Y-27116667D01*
X32171777Y-27133143D01*
X32188253Y-27151322D01*
X32202867Y-27171027D01*
X32215480Y-27192071D01*
X32225970Y-27214249D01*
X32234235Y-27237349D01*
X32240196Y-27261147D01*
X32243796Y-27285416D01*
X32245000Y-27309920D01*
X32245000Y-28559920D01*
X32243796Y-28584424D01*
X32240196Y-28608693D01*
X32234235Y-28632491D01*
X32225970Y-28655591D01*
X32215480Y-28677769D01*
X32202867Y-28698813D01*
X32188253Y-28718518D01*
X32171777Y-28736697D01*
X32153598Y-28753173D01*
X32133893Y-28767787D01*
X32112849Y-28780400D01*
X32090671Y-28790890D01*
X32067571Y-28799155D01*
X32043773Y-28805116D01*
X32019504Y-28808716D01*
X31995000Y-28809920D01*
X31245000Y-28809920D01*
X31220496Y-28808716D01*
X31196227Y-28805116D01*
X31172429Y-28799155D01*
X31149329Y-28790890D01*
X31127151Y-28780400D01*
X31106107Y-28767787D01*
X31086402Y-28753173D01*
X31068223Y-28736697D01*
X31051747Y-28718518D01*
X31037133Y-28698813D01*
X31024520Y-28677769D01*
X31014030Y-28655591D01*
X31005765Y-28632491D01*
X30999804Y-28608693D01*
X30996204Y-28584424D01*
X30995000Y-28559920D01*
X30995000Y-27309920D01*
X30996204Y-27285416D01*
X30999804Y-27261147D01*
X31005765Y-27237349D01*
X31014030Y-27214249D01*
X31024520Y-27192071D01*
X31037133Y-27171027D01*
X31051747Y-27151322D01*
X31068223Y-27133143D01*
X31086402Y-27116667D01*
X31106107Y-27102053D01*
X31127151Y-27089440D01*
X31149329Y-27078950D01*
X31172429Y-27070685D01*
X31196227Y-27064724D01*
X31220496Y-27061124D01*
X31245000Y-27059920D01*
X31995000Y-27059920D01*
X32019504Y-27061124D01*
X32019504Y-27061124D01*
G37*
D18*
X31620000Y-27934920D03*
D17*
G36*
X34819504Y-27061124D02*
G01*
X34843773Y-27064724D01*
X34867571Y-27070685D01*
X34890671Y-27078950D01*
X34912849Y-27089440D01*
X34933893Y-27102053D01*
X34953598Y-27116667D01*
X34971777Y-27133143D01*
X34988253Y-27151322D01*
X35002867Y-27171027D01*
X35015480Y-27192071D01*
X35025970Y-27214249D01*
X35034235Y-27237349D01*
X35040196Y-27261147D01*
X35043796Y-27285416D01*
X35045000Y-27309920D01*
X35045000Y-28559920D01*
X35043796Y-28584424D01*
X35040196Y-28608693D01*
X35034235Y-28632491D01*
X35025970Y-28655591D01*
X35015480Y-28677769D01*
X35002867Y-28698813D01*
X34988253Y-28718518D01*
X34971777Y-28736697D01*
X34953598Y-28753173D01*
X34933893Y-28767787D01*
X34912849Y-28780400D01*
X34890671Y-28790890D01*
X34867571Y-28799155D01*
X34843773Y-28805116D01*
X34819504Y-28808716D01*
X34795000Y-28809920D01*
X34045000Y-28809920D01*
X34020496Y-28808716D01*
X33996227Y-28805116D01*
X33972429Y-28799155D01*
X33949329Y-28790890D01*
X33927151Y-28780400D01*
X33906107Y-28767787D01*
X33886402Y-28753173D01*
X33868223Y-28736697D01*
X33851747Y-28718518D01*
X33837133Y-28698813D01*
X33824520Y-28677769D01*
X33814030Y-28655591D01*
X33805765Y-28632491D01*
X33799804Y-28608693D01*
X33796204Y-28584424D01*
X33795000Y-28559920D01*
X33795000Y-27309920D01*
X33796204Y-27285416D01*
X33799804Y-27261147D01*
X33805765Y-27237349D01*
X33814030Y-27214249D01*
X33824520Y-27192071D01*
X33837133Y-27171027D01*
X33851747Y-27151322D01*
X33868223Y-27133143D01*
X33886402Y-27116667D01*
X33906107Y-27102053D01*
X33927151Y-27089440D01*
X33949329Y-27078950D01*
X33972429Y-27070685D01*
X33996227Y-27064724D01*
X34020496Y-27061124D01*
X34045000Y-27059920D01*
X34795000Y-27059920D01*
X34819504Y-27061124D01*
X34819504Y-27061124D01*
G37*
D18*
X34420000Y-27934920D03*
D19*
X32639000Y-71247000D03*
X33020000Y-27940000D03*
X32246560Y-34497000D03*
X33020000Y-25654000D03*
X35624897Y-34481897D03*
X35623500Y-35880500D03*
X30416500Y-35880500D03*
X29210000Y-62357000D03*
X26670000Y-54610000D03*
X27520010Y-64770000D03*
D20*
X29210000Y-68580000D02*
X31877000Y-71247000D01*
X31877000Y-71247000D02*
X32639000Y-71247000D01*
X40640000Y-27940000D02*
X40640000Y-25400000D01*
X34420000Y-27934920D02*
X33025080Y-27934920D01*
X33025080Y-27934920D02*
X33020000Y-27940000D01*
X32270000Y-35980500D02*
X32270000Y-34520440D01*
X32270000Y-34520440D02*
X32246560Y-34497000D01*
X38354000Y-71247000D02*
X32639000Y-71247000D01*
X42164000Y-29464000D02*
X42164000Y-68961000D01*
X40640000Y-27940000D02*
X42164000Y-29464000D01*
X41275000Y-69850000D02*
X39751000Y-69850000D01*
X42164000Y-68961000D02*
X41275000Y-69850000D01*
X39751000Y-69850000D02*
X38354000Y-71247000D01*
X34191000Y-25425000D02*
X34420000Y-25654000D01*
X33020000Y-25654000D02*
X34420000Y-25654000D01*
X25400000Y-73660000D02*
X27305000Y-73660000D01*
X38481000Y-73660000D02*
X40640000Y-73660000D01*
X37973000Y-73660000D02*
X38481000Y-73660000D01*
X27305000Y-73660000D02*
X37973000Y-73660000D01*
X35102847Y-34481897D02*
X35624897Y-34481897D01*
X34352103Y-34481897D02*
X35102847Y-34481897D01*
X33770000Y-35980500D02*
X33770000Y-35064000D01*
X33770000Y-35064000D02*
X34352103Y-34481897D01*
D10*
X27051998Y-62357000D02*
X29210000Y-62357000D01*
X26670000Y-55372000D02*
X26670000Y-61975002D01*
X26670000Y-61975002D02*
X27051998Y-62357000D01*
X26670000Y-31750000D02*
X25400000Y-30480000D01*
X26670000Y-54610000D02*
X26670000Y-31750000D01*
X26670000Y-55372000D02*
X26670000Y-54610000D01*
X24892000Y-64770000D02*
X26883614Y-64770000D01*
X24130000Y-64008000D02*
X24892000Y-64770000D01*
X26883614Y-64770000D02*
X27520010Y-64770000D01*
X24130000Y-29210000D02*
X24130000Y-64008000D01*
X25400000Y-27940000D02*
X24130000Y-29210000D01*
X32170000Y-33080500D02*
X32270000Y-32980500D01*
X30416500Y-33080500D02*
X32170000Y-33080500D01*
X33870000Y-33080500D02*
X33770000Y-32980500D01*
X35623500Y-33080500D02*
X33870000Y-33080500D01*
X31620000Y-25654000D02*
X31620000Y-27934920D01*
M02*
