M48
; DRILL file {KiCad 5.1.4} date Пн 02 сен 2019 18:10:28
; FORMAT={-:-/ absolute / inch / decimal}
; #@! TF.CreationDate,2019-09-02T18:10:28+03:00
; #@! TF.GenerationSoftware,Kicad,Pcbnew,5.1.4
; #@! TF.FileFunction,Plated,1,2,PTH
FMAT,2
INCH
T1C0.0157
T2C0.0300
T3C0.0335
T4C0.0394
%
G90
G05
T1
X1.05Y-2.15
X1.0835Y-2.55
X1.15Y-2.455
X1.1975Y-1.4126
X1.2695Y-1.3581
X1.285Y-2.805
X1.3Y-1.01
X1.3Y-1.1
X1.4025Y-1.4126
X1.4026Y-1.3576
T2
X1.0Y-1.0
X1.0Y-1.1
X1.0Y-1.2
X1.0Y-1.3
X1.0Y-1.4
X1.0Y-1.5
X1.0Y-1.6
X1.0Y-1.7
X1.0Y-1.8
X1.0Y-1.9
X1.0Y-2.0
X1.0Y-2.1
X1.0Y-2.2
X1.0Y-2.3
X1.0Y-2.4
X1.0Y-2.5
X1.0Y-2.6
X1.0Y-2.7
X1.0Y-2.8
X1.0Y-2.9
X1.6Y-1.0
X1.6Y-1.1
X1.6Y-1.2
X1.6Y-1.3
X1.6Y-1.4
X1.6Y-1.5
X1.6Y-1.6
X1.6Y-1.7
X1.6Y-1.8
X1.6Y-1.9
X1.6Y-2.0
X1.6Y-2.1
X1.6Y-2.2
X1.6Y-2.3
X1.6Y-2.4
X1.6Y-2.5
X1.6Y-2.6
X1.6Y-2.7
X1.6Y-2.8
X1.6Y-2.9
T3
X1.5Y-2.5
T4
X1.5Y-1.6
X1.5Y-1.7
X1.5Y-1.8
X1.5Y-2.2
X1.5Y-2.3
X1.1Y-1.9
X1.1Y-2.0
X1.1Y-2.1
X1.1Y-2.2
X1.1Y-2.3
X1.1Y-2.4
X1.15Y-2.7
X1.25Y-2.7
X1.35Y-2.7
X1.45Y-2.7
T0
M30
